<?xml version="1.0" encoding="utf-8"?>
<!-- Generator: Adobe Illustrator 16.0.0, SVG Export Plug-In . SVG Version: 6.00 Build 0)  -->
<!DOCTYPE svg PUBLIC "-//W3C//DTD SVG 1.1//EN" "http://www.w3.org/Graphics/SVG/1.1/DTD/svg11.dtd">
<svg version="1.1" id="Layer_1" xmlns="http://www.w3.org/2000/svg" xmlns:xlink="http://www.w3.org/1999/xlink" x="0px" y="0px"
	 width="70px" height="81px" viewBox="0 0 70 81" enable-background="new 0 0 70 81" xml:space="preserve">
<path fill="#E20613" d="M35.15,1.787L1.574,21.09l-0.07,38.73l33.505,19.426l33.576-19.305l0.07-38.729L35.15,1.787z M60.993,55.726
	L35.025,70.659L9.11,55.635l0.054-29.958l25.97-14.93l25.915,15.026L60.993,55.726z"/>
<polygon display="none" fill="#E20613" points="139.152,94.948 95.741,120.906 86.878,106.078 130.291,80.122 "/>
<polygon fill="#E20613" points="49,35.001 49,35.023 37.758,41.077 40.138,45.559 48.781,40.838 48.753,47.832 35.047,55.708 
	21.375,47.782 21.403,31.982 35.1,24.107 45.036,29.869 51.131,26.573 34.99,17.214 15.11,28.643 15.068,51.574 34.906,63.075 
	54.785,51.645 54.941,31.725 "/>
</svg>
